<svg xmlns="http://www.w3.org/2000/svg" width="47" height="35.25" viewBox="0 0 47 35.25">
  <path id="form_icon" d="M43.7,16.218V14.26l-5.875,3.917L31.946,14.26v1.958l5.875,3.917Zm1.958-9.792H6.487a3.916,3.916,0,0,0-3.917,3.917V37.76a3.916,3.916,0,0,0,3.917,3.917H45.654a3.9,3.9,0,0,0,3.9-3.917l.02-27.417a3.916,3.916,0,0,0-3.917-3.917ZM18.237,12.3a5.875,5.875,0,1,1-5.875,5.875A5.88,5.88,0,0,1,18.237,12.3Zm11.75,23.5H6.487V33.843c0-3.917,7.833-6.071,11.75-6.071s11.75,2.154,11.75,6.071Zm15.667-11.75H29.987V12.3H45.654Z" transform="translate(-2.571 -6.427)"/>
</svg>
